<svg xmlns="http://www.w3.org/2000/svg" width="70.79" height="22.7">
	<path
			d="M5.65 11.91 3.71 8.78l-.63.69v2.44H0V.02h3.09v6.5l2.28-3.18h3.25L5.67 7.09l3.24 4.82H5.64zM18.1 11.91H15V7.09c.03-.33-.07-.66-.29-.92a.916.916 0 0 0-.66-.29c-.31.02-.6.14-.83.34-.29.23-.52.53-.65.88v4.8H9.49V3.33h2.79v1.26c.31-.47.76-.84 1.28-1.06.62-.26 1.28-.38 1.95-.37.48-.02.97.08 1.39.32.32.19.59.47.78.79.18.31.3.65.35 1.01.05.32.08.65.08.98v5.65zM19.59 3.34h3.09v8.57h-3.09zm0-3.32h3.09v2.62h-3.09zM32.87 11.91h-3.09V7.09c.03-.33-.07-.66-.29-.92a.973.973 0 0 0-.71-.29c-.12 0-.24.04-.35.09-.14.07-.28.15-.41.24-.14.11-.27.24-.38.38-.12.15-.22.32-.29.5v4.8h-3.09V0h3.09v4.59c.29-.46.71-.83 1.19-1.06.51-.25 1.07-.38 1.64-.37.5-.02.99.09 1.43.32.33.18.61.45.81.78.19.31.31.65.36 1 .05.33.08.67.08 1.01v5.63zM37.07 7.62c-.03.49.12.97.42 1.35.53.6 1.46.66 2.06.12.04-.04.09-.08.12-.12.3-.38.45-.86.42-1.35.03-.49-.12-.97-.42-1.35-.54-.6-1.47-.65-2.07-.11-.04.04-.08.07-.11.11-.3.38-.45.86-.42 1.35m1.51 4.46c-.69.01-1.38-.11-2.03-.37-.55-.22-1.05-.55-1.47-.98-.4-.4-.7-.89-.9-1.42-.4-1.09-.4-2.28 0-3.37.2-.53.5-1.02.9-1.43.42-.42.91-.76 1.47-.98 1.3-.49 2.74-.49 4.05 0 .56.22 1.06.55 1.49.98.39.4.7.89.89 1.41.4 1.09.4 2.28 0 3.37-.19.53-.5 1.01-.89 1.42-.42.42-.92.76-1.47.98-.64.26-1.34.39-2.03.38M48.92 9.47c.46.02.91-.16 1.23-.49.32-.35.49-.82.46-1.3 0-.25-.04-.5-.12-.73-.07-.22-.18-.42-.32-.6-.13-.17-.3-.31-.49-.41-.19-.1-.41-.15-.63-.15-.35 0-.68.13-.95.35-.3.24-.53.55-.67.91v1.53c.3.53.86.86 1.47.88m.91 2.63c-1.29 0-2.21-.5-2.77-1.5v1.34h-2.69V.02h3.08v4.59c.24-.45.61-.82 1.06-1.06.5-.26 1.05-.38 1.61-.37.51 0 1.01.11 1.46.34.45.23.85.55 1.16.95.34.42.6.9.77 1.42.19.58.28 1.18.28 1.78 0 .6-.11 1.2-.32 1.77-.18.51-.45.98-.8 1.39-.35.39-.78.7-1.26.92-.5.22-1.03.34-1.58.33M57.6 7.62c-.03.49.12.97.42 1.35.53.6 1.46.66 2.06.12.04-.04.09-.08.12-.12.3-.38.45-.86.42-1.35.03-.49-.12-.97-.42-1.35-.54-.6-1.47-.65-2.07-.11-.04.04-.08.07-.11.11-.3.38-.45.86-.42 1.35m1.51 4.46c-.69.01-1.38-.11-2.03-.37-.55-.22-1.05-.55-1.47-.98-.4-.4-.7-.89-.9-1.42-.4-1.09-.4-2.28 0-3.37.2-.53.51-1.02.91-1.43.42-.42.91-.76 1.47-.98 1.3-.49 2.74-.49 4.05 0 .55.22 1.06.55 1.47.98.39.4.7.88.89 1.41.4 1.09.4 2.28 0 3.37-.2.53-.5 1.01-.9 1.42-.42.42-.92.76-1.47.98-.64.26-1.33.39-2.02.38M70.78 11.44c-.45.19-.92.35-1.39.46-.48.12-.97.19-1.47.19-.34 0-.67-.04-.99-.13-.3-.08-.58-.22-.82-.42-.24-.21-.43-.47-.55-.77-.15-.37-.22-.77-.2-1.17V5.67H64.3V3.34h1.06V.65h3.09v2.69h1.69v2.33h-1.68v2.84c-.02.21.04.43.18.6.13.12.31.18.49.17.18 0 .35-.03.52-.07.2-.05.4-.12.59-.2l.55 2.44z"/>
	<g>
		<path
				d="m.59 17.28 1.37 3.49 1.37-3.49h.56l-1.7 4.15h-.46l-1.7-4.15zM5.94 18.83c-.26 0-.49.07-.68.2-.19.12-.33.3-.41.52v1.88h-.51v-3.05h.48v.71c.11-.21.24-.38.42-.51.17-.13.35-.21.55-.22h.17v.47zM7.44 21.49c-.14 0-.28-.02-.4-.07s-.23-.12-.33-.2c-.09-.09-.16-.18-.22-.3a.957.957 0 0 1-.08-.38.833.833 0 0 1 .35-.68c.12-.08.25-.15.41-.19.16-.05.33-.07.52-.07.15 0 .3.01.45.04.15.03.29.06.4.11v-.25c0-.25-.07-.44-.21-.58-.14-.14-.34-.22-.6-.22-.31 0-.63.12-.97.36l-.17-.33c.39-.26.79-.4 1.19-.4.4 0 .71.11.94.32.23.21.34.52.34.91v1.24c0 .12.05.18.16.19v.44c-.05 0-.1.01-.13.02h-.11c-.1 0-.18-.03-.25-.09a.46.46 0 0 1-.11-.22v-.22c-.15.18-.32.32-.53.42-.21.09-.43.14-.67.14zm.13-.39c.18 0 .35-.03.51-.1.16-.07.28-.16.36-.27.07-.07.11-.15.11-.23v-.45c-.25-.1-.51-.15-.78-.15s-.47.05-.63.16c-.16.11-.24.25-.24.43 0 .09.02.17.05.24.04.07.08.14.14.19a.751.751 0 0 0 .48.18zM9.9 19.9c0-.21.04-.42.11-.61s.18-.36.32-.5.3-.26.49-.34c.19-.09.4-.13.64-.13.3 0 .57.07.78.2.22.13.39.31.5.54l-.5.16a.807.807 0 0 0-.33-.33.94.94 0 0 0-.47-.12c-.14 0-.27.03-.4.09-.12.05-.23.13-.32.23s-.16.22-.22.36c-.05.14-.08.29-.08.45a1.252 1.252 0 0 0 .3.82c.09.1.2.18.32.24s.26.09.4.09c.09 0 .18-.01.26-.04a.88.88 0 0 0 .24-.11.7.7 0 0 0 .31-.34l.5.15c-.05.11-.11.22-.2.31-.08.09-.18.17-.29.24-.11.07-.24.12-.38.16-.14.04-.28.06-.43.06-.23 0-.44-.04-.63-.13s-.35-.2-.49-.34a1.53 1.53 0 0 1-.32-.5c-.07-.19-.11-.4-.11-.61zM13.89 17.87l-.34-.12.34-.59h.51zm-.34 3.56v-3.05h.51v3.05zM19.7 21.43h-.51v-1.71c0-.32-.05-.55-.16-.71-.1-.15-.25-.23-.46-.23-.21 0-.4.08-.57.23-.16.15-.28.34-.35.58v1.83h-.51v-1.71c0-.33-.05-.56-.15-.71-.1-.15-.25-.22-.46-.22a.81.81 0 0 0-.56.22c-.17.14-.29.34-.36.58v1.84h-.51v-3.05h.47v.65c.12-.23.29-.4.49-.52s.42-.19.67-.19c.25 0 .46.07.61.21.15.14.25.31.28.53.27-.49.66-.74 1.16-.74.18 0 .32.03.44.1.12.06.22.15.29.27.07.11.12.25.15.4.03.16.05.33.05.51v1.82zM22.06 21.49c-.23 0-.44-.04-.63-.12-.19-.09-.35-.2-.49-.34a1.53 1.53 0 0 1-.32-.5c-.07-.19-.11-.4-.11-.61 0-.21.04-.42.11-.61.08-.19.19-.36.32-.5.14-.14.31-.26.5-.34.19-.09.4-.13.63-.13.23 0 .44.04.63.13s.35.2.49.34c.13.14.23.31.3.5.07.19.11.38.11.58v.2h-2.53c.01.15.05.29.11.41s.13.23.23.32c.09.09.2.16.32.21.12.05.25.08.38.08.09 0 .19-.01.27-.04.09-.03.17-.06.25-.11.08-.04.15-.1.2-.16.06-.06.11-.13.14-.21l.44.12c-.05.11-.12.22-.21.31s-.19.18-.3.25c-.11.07-.24.12-.38.16-.14.04-.29.06-.44.06zm1.05-1.79c-.01-.14-.05-.28-.11-.4s-.13-.23-.23-.32a.871.871 0 0 0-.32-.2c-.12-.05-.25-.08-.39-.08s-.27.03-.39.08-.23.11-.32.2c-.09.09-.16.19-.22.31-.05.12-.09.25-.1.4h2.07zM28.21 21.43l-1.05-1.49-.58.55v.94h-.51v-4.26h.51v2.8l1.57-1.58h.57l-1.22 1.26 1.27 1.78zM32.07 21.43h-.51v-1.71c0-.33-.05-.56-.15-.71-.1-.15-.25-.22-.45-.22-.11 0-.21.02-.32.06a1.185 1.185 0 0 0-.55.41c-.07.1-.12.2-.16.32v1.84h-.51v-3.05h.47v.65c.12-.21.29-.39.52-.51.23-.13.48-.19.75-.19.18 0 .32.03.44.1.12.06.21.15.28.27.07.11.12.25.15.4.03.16.05.33.05.51v1.82zM33.08 21.43v-3.05h.51v3.05zm0-3.62v-.64h.51v.64zM37.28 21.43h-.51v-1.71c0-.32-.05-.55-.16-.7-.11-.16-.27-.23-.48-.23-.1 0-.2.02-.3.06-.1.04-.2.09-.29.16-.09.07-.16.15-.23.25s-.12.2-.15.32v1.84h-.51v-4.26h.51v1.87c.12-.22.28-.4.49-.52.21-.12.43-.19.68-.19.18 0 .33.03.46.1.12.07.22.16.3.27.07.11.13.25.16.41.04.16.05.32.05.5v1.82zM38.37 22.23c.05 0 .1.01.15.02h.12c.05 0 .09-.01.12-.04a.26.26 0 0 0 .11-.12c.04-.06.08-.15.13-.26.05-.11.11-.25.18-.43l-1.3-3.02h.53l1.04 2.59.95-2.59h.49l-1.48 3.8c-.05.14-.15.26-.27.36-.12.11-.3.16-.52.16h-.11c-.04 0-.08-.01-.13-.02v-.44zM44.4 21.49c-.21 0-.41-.04-.58-.13a1.483 1.483 0 0 1-.76-.84 1.775 1.775 0 0 1-.01-1.21c.07-.19.17-.36.29-.51.12-.14.27-.26.44-.34.17-.09.36-.13.56-.13.25 0 .46.06.65.19s.35.28.46.47v-1.82h.51v3.63c0 .12.05.18.16.19v.44c-.05 0-.1.01-.13.02h-.09c-.1 0-.19-.03-.27-.1a.336.336 0 0 1-.11-.24v-.26a1.303 1.303 0 0 1-1.12.63zm.12-.44c.09 0 .19-.02.29-.05.1-.04.19-.08.28-.15.09-.06.17-.13.23-.22.07-.09.11-.18.13-.27v-.88a.919.919 0 0 0-.16-.27c-.07-.09-.15-.17-.24-.23a.848.848 0 0 0-.28-.15.753.753 0 0 0-.29-.06c-.15 0-.29.03-.42.1-.12.06-.23.15-.32.26-.09.11-.15.23-.2.37-.05.14-.07.28-.07.42 0 .15.03.3.08.44s.13.25.22.36c.09.1.2.18.33.25.13.06.27.09.41.09zM48.36 21.49c-.23 0-.44-.04-.63-.13s-.35-.2-.49-.34c-.13-.14-.24-.31-.31-.5a1.725 1.725 0 0 1 0-1.21 1.53 1.53 0 0 1 1.44-.97c.23 0 .43.04.63.13s.35.2.49.34.24.31.32.5c.08.19.12.39.12.61 0 .22-.04.41-.11.6s-.18.36-.32.5-.3.26-.49.34c-.19.09-.4.13-.63.13zm-1.01-1.57c0 .16.03.31.08.44a1.089 1.089 0 0 0 .54.6.902.902 0 0 0 .79 0c.12-.06.23-.14.33-.24.09-.11.17-.23.22-.36a1.273 1.273 0 0 0 0-.89.946.946 0 0 0-.22-.36.905.905 0 0 0-.33-.25.86.86 0 0 0-.39-.09.934.934 0 0 0-.72.34c-.09.1-.16.22-.22.36-.05.14-.08.28-.08.44zM53.75 21.49c-.23 0-.44-.04-.63-.13s-.35-.2-.49-.34c-.13-.14-.24-.31-.31-.5a1.725 1.725 0 0 1 0-1.21 1.53 1.53 0 0 1 1.44-.97c.23 0 .43.04.63.13.19.09.35.2.49.34s.24.31.32.5c.08.19.12.39.12.61 0 .22-.04.41-.11.6s-.18.36-.32.5-.3.26-.49.34c-.19.09-.4.13-.63.13zm-1.01-1.57c0 .16.03.31.08.44a1.089 1.089 0 0 0 .54.6.902.902 0 0 0 .79 0c.12-.06.23-.14.33-.24.09-.11.17-.23.22-.36a1.273 1.273 0 0 0 0-.89.946.946 0 0 0-.22-.36.905.905 0 0 0-.33-.25.86.86 0 0 0-.39-.09.934.934 0 0 0-.72.34c-.09.1-.16.22-.22.36-.05.14-.08.28-.08.44zM57.7 21.49c-.24 0-.45-.06-.65-.18s-.35-.27-.46-.46v.57h-.46v-4.26h.51v1.82c.13-.2.29-.36.47-.48.19-.12.41-.18.65-.18.21 0 .4.04.57.13.17.09.31.21.43.36.12.14.21.31.27.51a1.781 1.781 0 0 1-.01 1.2c-.07.19-.18.36-.3.5-.13.14-.28.25-.46.34-.18.08-.36.12-.57.12zm-.13-.44c.15 0 .29-.03.42-.09s.24-.15.33-.25c.09-.1.17-.22.22-.36.05-.14.08-.28.08-.43 0-.15-.03-.29-.08-.43s-.12-.26-.2-.37a.87.87 0 0 0-.32-.25.767.767 0 0 0-.4-.1.919.919 0 0 0-.58.22c-.08.06-.16.14-.22.22-.06.09-.12.18-.16.27v.88c.02.1.06.19.12.27.07.08.14.15.23.22.09.06.18.11.28.14.1.04.2.05.29.05zM60.82 17.16l.5.37.5-.37.28.14-.59.53h-.37l-.59-.53.28-.14zm.51 4.32c-.23 0-.44-.04-.63-.12-.19-.09-.36-.2-.49-.34a1.53 1.53 0 0 1-.32-.5c-.07-.19-.11-.4-.11-.61 0-.21.04-.42.11-.61.08-.19.19-.36.32-.5.14-.14.31-.26.5-.34.19-.09.4-.13.63-.13.23 0 .44.04.63.13s.35.2.49.34c.13.14.23.31.3.5.07.19.11.38.11.58v.2h-2.53c.01.15.05.29.11.41s.13.23.23.32c.09.09.2.16.32.21.12.05.25.08.38.08.09 0 .18-.01.27-.04.09-.03.17-.06.25-.11.08-.04.15-.1.2-.16.06-.06.11-.13.14-.21l.44.12c-.05.11-.12.22-.21.31s-.19.18-.3.25c-.11.07-.24.12-.38.16-.14.04-.29.06-.44.06zm1.05-1.79c-.01-.14-.05-.28-.11-.4s-.13-.23-.23-.32a.962.962 0 0 0-.32-.2c-.12-.05-.25-.08-.39-.08s-.26.03-.39.08c-.12.05-.23.11-.32.2-.09.09-.16.19-.22.31-.05.12-.09.25-.1.4h2.07zM66.29 21.43h-.51v-1.71c0-.32-.05-.55-.16-.7-.11-.16-.27-.23-.48-.23-.1 0-.2.02-.3.06-.1.04-.2.09-.29.16-.09.07-.16.15-.23.25s-.12.2-.15.32v1.84h-.51v-4.26h.51v1.87c.12-.22.28-.4.49-.52.21-.12.43-.19.68-.19.18 0 .33.03.46.1.12.07.22.16.3.27.07.11.13.25.16.41.04.16.05.32.05.5v1.82zM68.24 21.49c-.32 0-.56-.11-.72-.32-.16-.21-.25-.53-.25-.96v-1.83h.51v1.73c0 .62.22.93.65.93a1 1 0 0 0 .59-.2c.19-.14.33-.32.41-.55v-1.91h.51v2.42c0 .12.05.18.16.19v.44c-.06 0-.11.01-.14.01h-.09c-.1 0-.19-.03-.26-.09a.336.336 0 0 1-.11-.23v-.36c-.15.23-.33.41-.55.53-.22.12-.47.18-.73.18z"/>
	</g>
</svg>
